# xmcd CD database file
#
# Track frame offsets:
#	150
#	16022
#	32000
#	51881
#	71973
#	92184
#	109709
#	133643
#	152874
#	171713
#
# Disc length: 3727 seconds
#
# Revision: 0
# Processed by: cddbd v1.5.2PL0 Copyright (c) Steve Scherf et al.
# Submitted via: CDex 1.70beta2
#
DISCID=890e8d0a
DTITLE=GOZU - THE FURY OF A PATIENT MAN
DYEAR=2013
DGENRE=Stoner
TTITLE0=BALD BULL
TTITLE1=SIGNED, EPSTEIN'S MOM
TTITLE2=CHARLES BRONSON PINCHOT
TTITLE3=IRISH DART FIGHT
TTITLE4=SALTY THUMB
TTITLE5=DISCO RELATED INJURY
TTITLE6=TRACI LORDS
TTITLE7=GHOST WIPE
TTITLE8=SNAKE PLISSKEN
TTITLE9=THE CEASELESS THUNDER OF SURF
EXTD=YEAR: 2013
EXTT0=
EXTT1=
EXTT2=
EXTT3=
EXTT4=
EXTT5=
EXTT6=
EXTT7=
EXTT8=
EXTT9=
PLAYORDER=
